<svg id="line-chart" width="600" height="400">
  <g class="chart-grid" transform="translate(60, 0)" fill="none" font-size="10" font-family="sans-serif" text-anchor="end">
    <path class="domain" stroke="currentColor" d="M510,330H0V20H510"/>
    <g class="tick" opacity="1" transform="translate(0,330)">
      <line stroke="currentColor" x2="510"/>
      <text fill="currentColor" x="-3" dy="0.32em"/>
    </g>
    <g class="tick" opacity="1" transform="translate(0,284.39835245660487)">
      <line stroke="currentColor" x2="510"/>
      <text fill="currentColor" x="-3" dy="0.32em"/>
    </g>
    <g class="tick" opacity="1" transform="translate(0,238.79670491320977)">
      <line stroke="currentColor" x2="510"/>
      <text fill="currentColor" x="-3" dy="0.32em"/>
    </g>
    <g class="tick" opacity="1" transform="translate(0,193.19505736981466)">
      <line stroke="currentColor" x2="510"/>
      <text fill="currentColor" x="-3" dy="0.32em"/>
    </g>
    <g class="tick" opacity="1" transform="translate(0,147.59340982641953)">
      <line stroke="currentColor" x2="510"/>
      <text fill="currentColor" x="-3" dy="0.32em"/>
    </g>
    <g class="tick" opacity="1" transform="translate(0,101.99176228302444)">
      <line stroke="currentColor" x2="510"/>
      <text fill="currentColor" x="-3" dy="0.32em"/>
    </g>
    <g class="tick" opacity="1" transform="translate(0,56.39011473962932)">
      <line stroke="currentColor" x2="510"/>
      <text fill="currentColor" x="-3" dy="0.32em"/>
    </g>
  </g>
  <g class="chart-grid" transform="translate(0, 330)" fill="none" font-size="10" font-family="sans-serif" text-anchor="middle">
    <path class="domain" stroke="currentColor" d="M60,-330V0H510V-330"/>
    <g class="tick" opacity="1" transform="translate(60,0)">
      <line stroke="currentColor" y2="-330"/>
      <text fill="currentColor" y="3" dy="0.71em"/>
    </g>
    <g class="tick" opacity="1" transform="translate(116.25,0)">
      <line stroke="currentColor" y2="-330"/>
      <text fill="currentColor" y="3" dy="0.71em"/>
    </g>
    <g class="tick" opacity="1" transform="translate(172.5,0)">
      <line stroke="currentColor" y2="-330"/>
      <text fill="currentColor" y="3" dy="0.71em"/>
    </g>
    <g class="tick" opacity="1" transform="translate(228.75,0)">
      <line stroke="currentColor" y2="-330"/>
      <text fill="currentColor" y="3" dy="0.71em"/>
    </g>
    <g class="tick" opacity="1" transform="translate(285,0)">
      <line stroke="currentColor" y2="-330"/>
      <text fill="currentColor" y="3" dy="0.71em"/>
    </g>
    <g class="tick" opacity="1" transform="translate(341.25,0)">
      <line stroke="currentColor" y2="-330"/>
      <text fill="currentColor" y="3" dy="0.71em"/>
    </g>
    <g class="tick" opacity="1" transform="translate(397.5,0)">
      <line stroke="currentColor" y2="-330"/>
      <text fill="currentColor" y="3" dy="0.71em"/>
    </g>
    <g class="tick" opacity="1" transform="translate(453.75,0)">
      <line stroke="currentColor" y2="-330"/>
      <text fill="currentColor" y="3" dy="0.71em"/>
    </g>
    <g class="tick" opacity="1" transform="translate(510,0)">
      <line stroke="currentColor" y2="-330"/>
      <text fill="currentColor" y="3" dy="0.71em"/>
    </g>
  </g>
  <g class="x-axis" transform="translate(0, 330)" fill="none" font-size="10" font-family="sans-serif" text-anchor="middle">
    <path class="domain" stroke="currentColor" d="M60,6V0H510V6"/>
    <g class="tick" opacity="1" transform="translate(60,0)">
      <line stroke="currentColor" y2="6"/>
      <text fill="currentColor" y="9" dy="0.71em">:01</text>
    </g>
    <g class="tick" opacity="1" transform="translate(116.25,0)">
      <line stroke="currentColor" y2="6"/>
      <text fill="currentColor" y="9" dy="0.71em">:02</text>
    </g>
    <g class="tick" opacity="1" transform="translate(172.5,0)">
      <line stroke="currentColor" y2="6"/>
      <text fill="currentColor" y="9" dy="0.71em">:03</text>
    </g>
    <g class="tick" opacity="1" transform="translate(228.75,0)">
      <line stroke="currentColor" y2="6"/>
      <text fill="currentColor" y="9" dy="0.71em">:04</text>
    </g>
    <g class="tick" opacity="1" transform="translate(285,0)">
      <line stroke="currentColor" y2="6"/>
      <text fill="currentColor" y="9" dy="0.71em">:05</text>
    </g>
    <g class="tick" opacity="1" transform="translate(341.25,0)">
      <line stroke="currentColor" y2="6"/>
      <text fill="currentColor" y="9" dy="0.71em">:06</text>
    </g>
    <g class="tick" opacity="1" transform="translate(397.5,0)">
      <line stroke="currentColor" y2="6"/>
      <text fill="currentColor" y="9" dy="0.71em">:07</text>
    </g>
    <g class="tick" opacity="1" transform="translate(453.75,0)">
      <line stroke="currentColor" y2="6"/>
      <text fill="currentColor" y="9" dy="0.71em">:08</text>
    </g>
    <g class="tick" opacity="1" transform="translate(510,0)">
      <line stroke="currentColor" y2="6"/>
      <text fill="currentColor" y="9" dy="0.71em">:09</text>
    </g>
  </g>
  <g class="y-axis" transform="translate(60, 0)" fill="none" font-size="10" font-family="sans-serif" text-anchor="end">
    <path class="domain" stroke="currentColor" d="M-6,330H0V20H-6"/>
    <g class="tick" opacity="1" transform="translate(0,330)">
      <line stroke="currentColor" x2="-6"/>
      <text fill="currentColor" x="-9" dy="0.32em">0</text>
    </g>
    <g class="tick" opacity="1" transform="translate(0,284.39835245660487)">
      <line stroke="currentColor" x2="-6"/>
      <text fill="currentColor" x="-9" dy="0.32em">5</text>
    </g>
    <g class="tick" opacity="1" transform="translate(0,238.79670491320977)">
      <line stroke="currentColor" x2="-6"/>
      <text fill="currentColor" x="-9" dy="0.32em">10</text>
    </g>
    <g class="tick" opacity="1" transform="translate(0,193.19505736981466)">
      <line stroke="currentColor" x2="-6"/>
      <text fill="currentColor" x="-9" dy="0.32em">15</text>
    </g>
    <g class="tick" opacity="1" transform="translate(0,147.59340982641953)">
      <line stroke="currentColor" x2="-6"/>
      <text fill="currentColor" x="-9" dy="0.32em">20</text>
    </g>
    <g class="tick" opacity="1" transform="translate(0,101.99176228302444)">
      <line stroke="currentColor" x2="-6"/>
      <text fill="currentColor" x="-9" dy="0.32em">25</text>
    </g>
    <g class="tick" opacity="1" transform="translate(0,56.39011473962932)">
      <line stroke="currentColor" x2="-6"/>
      <text fill="currentColor" x="-9" dy="0.32em">30</text>
    </g>
  </g>
  <text class="x-label" text-anchor="middle" x="255" y="390">Time</text>
  <text class="y-label" text-anchor="middle" transform="rotate(-90)" x="-165" y="15">Value</text>
  <path d="M60,20.182L116.25,20.091L116.25,20.091L172.5,20.091L285,20.091L341.25,20.091L341.25,20.091L397.5,20L510,20LNaN,NaN" fill="none" stroke="blue" stroke-width="2"/>
</svg>
